PathFileType	4	(X/Y/Z)	/Users/itak/Documents/Research/Walk-IL/dataset/trc/00340_00011.trc
DataRate	CameraRate	NumFrames	NumMarkers	Units	OrigDataRate	OrigDataStartFrame	OrigNumFrames
100.000000	100.000000	4	53	mm	100.000000	204	817
Frame#	Time	RPSI			LPSI			L3			STRN			T10			C7			CLAV			RBAK			LBAK			LSHO			LUPA			LAEL			LAOL			LWTS			LWPS			LFRA			LIFD			LHPS			LHTS			RSHO			RUPA			RAEL			RAOL			RWTS			RWPS			RFRA			RIFD			RHTS			RHPS			RBHD			LFHD			RFHD			LBHD			LHIP			RHIP			RASI			LASI			LKNE			LTHI			LANK			LTIP			LTOE			LMT1			LMT5			LHEE			RKNE			RTHI			RANK			RTIP			RTOE			RMT1			RMT5			RHEE			
		X1	Y1	Z1	X2	Y2	Z2	X3	Y3	Z3	X4	Y4	Z4	X5	Y5	Z5	X6	Y6	Z6	X7	Y7	Z7	X8	Y8	Z8	X9	Y9	Z9	X10	Y10	Z10	X11	Y11	Z11	X12	Y12	Z12	X13	Y13	Z13	X14	Y14	Z14	X15	Y15	Z15	X16	Y16	Z16	X17	Y17	Z17	X18	Y18	Z18	X19	Y19	Z19	X20	Y20	Z20	X21	Y21	Z21	X22	Y22	Z22	X23	Y23	Z23	X24	Y24	Z24	X25	Y25	Z25	X26	Y26	Z26	X27	Y27	Z27	X28	Y28	Z28	X29	Y29	Z29	X30	Y30	Z30	X31	Y31	Z31	X32	Y32	Z32	X33	Y33	Z33	X34	Y34	Z34	X35	Y35	Z35	X36	Y36	Z36	X37	Y37	Z37	X38	Y38	Z38	X39	Y39	Z39	X40	Y40	Z40	X41	Y41	Z41	X42	Y42	Z42	X43	Y43	Z43	X44	Y44	Z44	X45	Y45	Z45	X46	Y46	Z46	X47	Y47	Z47	X48	Y48	Z48	X49	Y49	Z49	X50	Y50	Z50	X51	Y51	Z51	X52	Y52	Z52	X53	Y53	Z53	

205	2.04	216.1235656738281	949.0708618164062	1190.02294921875	187.6416931152344	943.0765380859375	1065.360961914062	203.2670288085938	1008.321228027344	1141.324584960938	433.7442016601562	1175.79248046875	1054.579345703125	204.8571014404297	1124.88671875	1150.268310546875	253.2825012207031	1369.253540039062	1107.573364257812	395.6640014648438	1302.761108398438	1057.487548828125	228.0270233154297	1236.273193359375	1197.782470703125	201.1562042236328	1326.881469726562	1023.946411132812	258.2864990234375	1335.34765625	935.75927734375	193.7856140136719	1221.069458007812	899.591552734375	157.486083984375	1021.309692382812	911.778076171875	142.6284027099609	1022.964965820312	994.9625244140625	190.5310516357422	757.1280517578125	928.7692260742188	125.6799774169922	762.78466796875	905.3685302734375	138.2543182373047	917.8259887695312	910.9248046875	143.4022064208984	605.2451171875	962.3203735351562	103.6336135864258	697.7874145507812	925.3028564453125	165.17529296875	679.4212036132812	925.3336791992188	366.9808654785156	1359.444580078125	1237.942260742188	381.0232238769531	1299.31494140625	1305.59423828125	415.0251159667969	1036.147216796875	1358.912719726562	339.6706237792969	1019.83935546875	1300.259155273438	503.8854370117188	805.6622924804688	1283.494995117188	502.0733642578125	796.3470458984375	1359.603393554688	444.4948425292969	969.322265625	1361.080444335938	520.6954345703125	634.3703002929688	1296.92529296875	540.283447265625	706.0296020507812	1291.485961914062	518.2152709960938	712.1822509765625	1357.595336914062	342.1080627441406	1572.665161132812	1149.483276367188	426.3406066894531	1572.125244140625	957.7648315429688	469.7703552246094	1579.880981445312	1049.177368164062	255.4019012451172	1557.082397460938	1034.142944335938	252.8299713134766	887.4065551757812	946.1989135742188	308.2890625	890.1428833007812	1284.979125976562	407.072265625	910.0775756835938	1227.005615234375	381.2743530273438	909.0020141601562	988.0409545898438	442.7955322265625	459.1470031738281	906.639404296875	388.8872680664062	588.5159912109375	903.402587890625	535.4279174804688	39.00977325439453	915.4117431640625	479.5882263183594	240.2862548828125	897.4578247070312	708.23486328125	107.6209564208984	812.8358154296875	698.4660034179688	81.14678955078125	888.093017578125	608.69091796875	68.70034790039062	818.8643188476562	561.4302368164062	38.59477996826172	987.2393798828125	234.8813934326172	446.5993957519531	1301.5029296875	341.5015258789062	684.8447875976562	1293.330810546875	18.3673210144043	75.81409454345703	1329.526733398438	195.0112915039062	330.1178894042969	1307.186645507812	199.985595703125	43.51097869873047	1270.036010742188	143.8408508300781	41.15407562255859	1228.752319335938	115.9818725585938	42.66110610961914	1344.672729492188	-36.62794876098633	86.39439392089844	1286.572509765625	
206	2.05	224.4558715820312	948.8674926757812	1184.705810546875	195.3521728515625	942.762451171875	1060.20751953125	211.3109436035156	1007.344970703125	1136.310791015625	440.5380249023438	1175.726684570312	1048.118896484375	212.4380340576172	1124.006591796875	1145.322143554688	259.853515625	1368.651245117188	1102.522094726562	402.1321716308594	1302.623779296875	1051.38720703125	235.5958099365234	1235.404663085938	1192.715087890625	207.3715362548828	1326.135986328125	1019.274108886719	263.6958618164062	1335.007568359375	930.7060546875	198.9422149658203	1220.826293945312	895.0678100585938	163.0268707275391	1020.910278320312	907.0922241210938	149.0757293701172	1022.295104980469	990.392822265625	197.3656158447266	756.9962158203125	923.036865234375	132.2471466064453	762.3186645507812	900.316650390625	144.1674957275391	917.3291015625	906.22900390625	151.8401794433594	604.8028564453125	955.7715454101562	110.8731002807617	697.1077880859375	920.0856323242188	172.5321807861328	679.1730346679688	919.2891235351562	374.3838195800781	1358.889404296875	1232.14111328125	389.0701599121094	1298.695922851562	1299.6357421875	423.1064453125	1035.353515625	1352.109252929688	347.5050659179688	1019.294128417969	1293.794189453125	511.2303161621094	804.7991333007812	1275.958251953125	509.8875732421875	795.4854736328125	1352.082763671875	452.5191650390625	968.5280151367188	1354.023559570312	527.6378784179688	633.4522705078125	1289.233764648438	547.3660888671875	705.0234985351562	1283.709106445312	525.71630859375	711.2835083007812	1349.922607421875	348.5342712402344	1572.284545898438	1144.503173828125	431.8280944824219	1572.29443359375	952.3494873046875	475.6991577148438	1579.800659179688	1043.60400390625	261.2428894042969	1556.9091796875	1029.549194335938	260.0125427246094	886.8237915039062	940.9069213867188	316.8349609375	890.08837890625	1279.6064453125	415.4554748535156	909.7695922851562	1221.113891601562	388.6120910644531	908.4602661132812	982.2178955078125	449.1365661621094	457.8972778320312	903.154052734375	395.7655639648438	587.528076171875	898.8518676757812	536.2310791015625	37.20307540893555	917.5454711914062	483.5557556152344	238.0444030761719	896.896728515625	710.0526123046875	101.6779861450195	814.3538208007812	699.937744140625	75.792724609375	889.8241577148438	610.0072631835938	64.50201416015625	820.752685546875	562.1430053710938	36.73468017578125	989.292236328125	240.8136596679688	447.7807006835938	1298.866088867188	349.0811767578125	685.0618896484375	1288.981567382812	20.11394691467285	79.05928039550781	1330.408081054688	199.6338348388672	331.791015625	1305.843017578125	200.1981964111328	43.57551193237305	1270.182861328125	144.180419921875	41.92789840698242	1228.999877929688	116.8796310424805	43.33009338378906	1345.304077148438	-34.66544723510742	91.13333892822266	1287.6318359375	
207	2.06	233.0702209472656	948.8179321289062	1179.165405273438	203.3378448486328	942.6527709960938	1054.79150390625	219.7151641845703	1006.4423828125	1131.06396484375	447.4662475585938	1175.840576171875	1041.354125976562	220.2112731933594	1123.253173828125	1140.137573242188	266.4941101074219	1368.144287109375	1097.228881835938	408.7123718261719	1302.6806640625	1044.99951171875	243.3372802734375	1234.617309570312	1187.378051757812	213.7725830078125	1325.549560546875	1014.251281738281	269.2059020996094	1334.806884765625	925.3770141601562	204.2348175048828	1220.707885742188	890.2992553710938	168.7254486083984	1020.627136230469	902.148681640625	155.7266235351562	1021.732971191406	985.5563354492188	204.5113220214844	757.0328979492188	916.9600219726562	139.1040954589844	761.9610595703125	894.992431640625	150.2863616943359	916.9342651367188	901.2695922851562	160.6356353759766	604.4209594726562	948.8999633789062	118.4736862182617	696.532958984375	914.5728149414062	180.2259826660156	679.0681762695312	912.8970947265625	381.8912658691406	1358.48486328125	1226.046020507812	397.2463684082031	1298.230712890625	1293.369262695312	431.2675170898438	1034.736938476562	1345.061279296875	355.4036560058594	1018.941528320312	1287.106079101562	518.6560668945312	804.1275024414062	1268.213745117188	517.7871704101562	794.8018798828125	1344.343872070312	460.6246948242188	967.9179077148438	1346.7265625	534.577392578125	632.6937255859375	1281.31982421875	554.479736328125	704.15185546875	1275.717407226562	533.2626953125	710.560302734375	1342.039306640625	354.9866333007812	1572.067504882812	1139.34521484375	437.3583679199219	1572.677368164062	946.7927856445312	481.6595458984375	1579.921752929688	1037.875732421875	267.1188659667969	1556.932983398438	1024.7607421875	267.4244384765625	886.4083862304688	935.3408203125	325.7119445800781	890.1712036132812	1273.9794921875	424.1687927246094	909.5717163085938	1214.938354492188	396.1867980957031	908.0360107421875	976.1473999023438	455.4676208496094	456.6614074707031	899.7210083007812	402.6242980957031	586.5037841796875	894.3792724609375	537.05126953125	35.95534133911133	919.339111328125	487.6355285644531	235.9983062744141	896.1943969726562	712.4895629882812	95.9217529296875	816.4531860351562	701.5587158203125	70.46742248535156	892.04296875	611.8462524414062	60.8237190246582	822.6907958984375	562.5647583007812	35.19207382202148	991.1001586914062	247.2374420166016	449.0828552246094	1296.083740234375	357.0629577636719	685.3833618164062	1284.410034179688	22.13094520568848	82.58510589599609	1331.342895507812	204.6881561279297	333.6426391601562	1304.441284179688	200.4395446777344	43.6605339050293	1270.394409179688	144.6227111816406	42.7968864440918	1229.326904296875	117.9349365234375	44.02940368652344	1346.029907226562	-32.31897354125977	96.30478668212891	1288.749267578125	
208	2.07	241.9252624511719	948.928955078125	1173.430297851562	211.5701599121094	942.7573852539062	1049.141357421875	228.4475708007812	1005.664916992188	1125.595336914062	454.5118408203125	1176.135620117188	1034.307495117188	228.1754913330078	1122.65380859375	1134.712646484375	273.1989135742188	1367.766845703125	1091.702270507812	415.3997497558594	1302.9326171875	1038.335571289062	251.2225341796875	1233.948364257812	1181.77685546875	220.3272705078125	1325.13330078125	1008.909484863281	274.8277893066406	1334.762573242188	919.7771606445312	209.6905822753906	1220.710205078125	885.2704467773438	174.5976867675781	1020.461486816406	896.9387817382812	162.5810089111328	1021.293334960938	980.4454345703125	211.9426879882812	757.2200927734375	910.5514526367188	146.2357177734375	761.7194213867188	889.4030151367188	156.6085815429688	916.6509399414062	896.0402221679688	169.7577667236328	604.1222534179688	941.7352905273438	126.4109191894531	696.0691528320312	908.78466796875	188.2289733886719	679.1067504882812	906.1802978515625	389.5075378417969	1358.244750976562	1219.676391601562	405.5313720703125	1297.918823242188	1286.807250976562	439.4935607910156	1034.299560546875	1337.788940429688	363.3660583496094	1018.777954101562	1280.202392578125	526.16845703125	803.66015625	1260.273559570312	525.7630004882812	794.3030395507812	1336.406494140625	468.7964172363281	967.4937744140625	1339.213745117188	541.5525512695312	632.1171875	1273.1865234375	561.6607055664062	703.4554443359375	1267.516967773438	540.8719482421875	710.0202026367188	1333.949340820312	361.4572448730469	1572.031372070312	1134.010620117188	442.9205017089844	1573.292724609375	941.1019897460938	487.64306640625	1580.275268554688	1031.993408203125	273.0270080566406	1557.16162109375	1019.780212402344	275.0226745605469	886.1898803710938	929.504150390625	334.9020385742188	890.3878173828125	1268.10400390625	433.1802062988281	909.484130859375	1208.501586914062	403.9569396972656	907.7496337890625	969.8467407226562	461.7836303710938	455.4648132324219	896.3297119140625	409.4234924316406	585.46826171875	890.0003051757812	538.0360107421875	35.30120086669922	920.70263671875	491.9216003417969	234.2177276611328	895.2804565429688	715.5927124023438	90.40927124023438	818.8135986328125	703.4334106445312	65.24697113037109	894.4509887695312	614.2467041015625	57.74407577514648	824.5155639648438	562.958984375	34.05718994140625	992.5571899414062	254.2521209716797	450.4896240234375	1293.115112304688	365.5091552734375	685.807373046875	1279.5859375	24.48136138916016	86.40041351318359	1332.298217773438	210.2756500244141	335.6720581054688	1302.953247070312	200.7078247070312	43.78024673461914	1270.69287109375	145.1965637207031	43.73564910888672	1229.7470703125	119.1677932739258	44.73775100708008	1346.839965820312	-29.49983978271484	101.9371795654297	1289.90478515625	
